<svg width="66" height="82" viewBox="0 0 66 82" fill="none" xmlns="http://www.w3.org/2000/svg">
<path d="M57.8291 77.1871V75.122H60.2277C60.6611 75.122 61.0418 75.0403 61.3698 74.877C61.6978 74.7137 61.9526 74.4861 62.1342 74.1944C62.3216 73.8969 62.4153 73.5527 62.4153 73.1619C62.4153 72.5552 62.2045 72.0797 61.7828 71.7355C61.361 71.3855 60.8075 71.2105 60.1222 71.2105H57.8291V68.9616H60.5176C61.3435 68.9616 62.0844 69.1133 62.7404 69.4166C63.4023 69.72 63.9265 70.1604 64.3131 70.738C64.6997 71.3155 64.893 72.0214 64.893 72.8556C64.893 73.6665 64.6938 74.3986 64.2955 75.052C63.8972 75.7054 63.3262 76.2246 62.5823 76.6096C61.8384 76.9946 60.951 77.1871 59.9201 77.1871H57.8291ZM56.0719 81.8599V68.9616H58.5847V81.8599H56.0719ZM63.1534 81.8599L60.1749 76.8284L62.0639 75.3408L66 81.8599H63.1534Z" fill="#5E5E5E"/>
<path d="M47.7077 82C46.7822 82 45.9183 81.8338 45.1158 81.5012C44.3192 81.1687 43.6193 80.702 43.016 80.1011C42.4127 79.5003 41.9412 78.8002 41.6014 78.001C41.2676 77.2018 41.1006 76.3355 41.1006 75.4021C41.1006 74.4745 41.2676 73.6111 41.6014 72.8119C41.9412 72.0127 42.4098 71.3156 43.0072 70.7205C43.6105 70.1255 44.3104 69.6617 45.107 69.3292C45.9095 68.9908 46.7705 68.8217 47.6901 68.8217C48.6273 68.8217 49.4942 68.9908 50.2907 69.3292C51.0932 69.6617 51.7931 70.1255 52.3906 70.7205C52.9939 71.3156 53.4595 72.0127 53.7875 72.8119C54.1214 73.6111 54.2883 74.4774 54.2883 75.4108C54.2883 76.3384 54.1214 77.2018 53.7875 78.001C53.4595 78.8002 52.9939 79.5003 52.3906 80.1011C51.7931 80.702 51.0961 81.1687 50.2995 81.5012C49.5029 81.8338 48.639 82 47.7077 82ZM47.6813 79.7161C48.267 79.7161 48.8059 79.6053 49.2979 79.3836C49.7958 79.1619 50.2292 78.8556 50.5983 78.4648C50.9731 78.0739 51.2631 77.6189 51.4681 77.0997C51.6731 76.5747 51.7756 76.0088 51.7756 75.4021C51.7756 74.7837 51.6701 74.2149 51.4593 73.6957C51.2543 73.1707 50.9643 72.7157 50.5895 72.3306C50.2205 71.9456 49.787 71.6452 49.2891 71.4293C48.7913 71.2135 48.2553 71.1056 47.6813 71.1056C47.1132 71.1056 46.5831 71.2135 46.0911 71.4293C45.599 71.6452 45.1685 71.9456 44.7995 72.3306C44.4305 72.7157 44.1406 73.1707 43.9297 73.6957C43.7189 74.2149 43.6134 74.7837 43.6134 75.4021C43.6134 76.0088 43.7159 76.5747 43.9209 77.0997C44.1318 77.6247 44.4188 78.0827 44.782 78.4735C45.151 78.8644 45.5815 79.1707 46.0735 79.3923C46.5714 79.6082 47.1073 79.7161 47.6813 79.7161Z" fill="#5E5E5E"/>
<path d="M37.7005 81.8599L34.7572 77.2834H34.6693L33.0264 75.4195V75.367L28.8442 68.9616H31.7348L34.7045 73.7744H34.7923L36.4529 75.3845V75.437L40.7053 81.8599H37.7005ZM28.774 81.8599L33.0264 75.437V75.3845L34.6693 73.7744H34.7572L37.718 68.9616H40.635L36.4529 75.367V75.4195L34.7923 77.2834H34.7045L31.7524 81.8599H28.774Z" fill="#5E5E5E"/>
<path d="M22.3427 82C21.3352 82 20.4566 81.7929 19.7069 81.3787C18.963 80.9645 18.386 80.384 17.976 79.6373C17.566 78.8848 17.361 78.0039 17.361 76.9946V68.9616H19.8738V77.1696C19.8738 77.6947 19.9763 78.1526 20.1813 78.5435C20.3922 78.9285 20.6821 79.226 21.0511 79.436C21.426 79.6461 21.8565 79.7511 22.3427 79.7511C23.1041 79.7511 23.7074 79.5148 24.1526 79.0423C24.5977 78.5697 24.8203 77.9455 24.8203 77.1696V68.9616H27.3331V76.9946C27.3331 78.0039 27.1281 78.8848 26.7181 79.6373C26.3139 80.384 25.7399 80.9645 24.996 81.3787C24.2521 81.7929 23.3677 82 22.3427 82Z" fill="#5E5E5E"/>
<path d="M9.10223 81.8599V68.9616H11.615V79.6111H16.5088V81.8599H9.10223Z" fill="#5E5E5E"/>
<path d="M0 81.8599V68.9616H7.38019V71.2105H2.51278V74.562H6.59824V76.8109H2.51278V81.8599H0Z" fill="#5E5E5E"/>
<path d="M33.4712 55.9234L25.0436 47.5176L48.6408 23.9814C53.2952 28.6238 53.2952 36.1506 48.6408 40.793L33.4712 55.9234Z" fill="#61DAFB"/>
<path d="M33.2667 35.5208L23.1536 45.6078L19.7826 42.2455L29.8957 32.1585L33.2667 35.5208Z" fill="#FF6D00"/>
<path d="M33.0023 8.38323L41.4299 16.789L17.8327 40.3253C13.1782 35.6829 13.1782 28.1561 17.8327 23.5137L33.0023 8.38323Z" fill="#FF6D00"/>
<path d="M33.2419 28.8208L43.355 18.7339L46.726 22.0962L36.6129 32.1831L33.2419 28.8208Z" fill="#61DAFB"/>
</svg>
